<svg width="20" height="20" viewBox="0 0 20 20" fill="none" xmlns="http://www.w3.org/2000/svg">
<g clip-path="url(#clip0_4268_29606)">
<path d="M15.3125 0H4.6875C2.09867 0 0 2.09867 0 4.6875V15.3125C0 17.9013 2.09867 20 4.6875 20H15.3125C17.9013 20 20 17.9013 20 15.3125V4.6875C20 2.09867 17.9013 0 15.3125 0Z" fill="#FF793F"/>
<path d="M8.20348 15.8333H10.7686V10.9149H13.0797L13.3337 8.47104H10.7686V7.23683C10.7686 7.07398 10.8361 6.9178 10.9564 6.80264C11.0767 6.68749 11.2398 6.6228 11.4098 6.6228H13.3337V4.16666H11.4098C10.5595 4.16666 9.74391 4.49012 9.1426 5.06589C8.54129 5.64166 8.20348 6.42257 8.20348 7.23683V8.47104H6.92094L6.66699 10.9149H8.20348V15.8333Z" fill="white"/>
</g>
<defs>
<clipPath id="clip0_4268_29606">
<rect width="20" height="20" fill="white"/>
</clipPath>
</defs>
</svg>
