<svg width="20" height="20" viewBox="0 0 20 20" fill="none" xmlns="http://www.w3.org/2000/svg">
<g clip-path="url(#clip0_4268_29607)">
<path d="M15.3125 0H4.6875C2.09867 0 0 2.09867 0 4.6875V15.3125C0 17.9013 2.09867 20 4.6875 20H15.3125C17.9013 20 20 17.9013 20 15.3125V4.6875C20 2.09867 17.9013 0 15.3125 0Z" fill="#FF793F"/>
<path d="M10.6168 4.00071C11.0546 3.99903 11.4924 4.00343 11.9301 4.01391L12.0465 4.01811C12.1809 4.02291 12.3135 4.02891 12.4737 4.03611C13.1121 4.06611 13.5477 4.1669 13.9298 4.3151C14.3258 4.46749 14.6594 4.67388 14.993 5.00747C15.298 5.30723 15.534 5.66982 15.6847 6.07004C15.8329 6.45222 15.9337 6.88841 15.9637 7.52679C15.9709 7.68638 15.9769 7.81958 15.9817 7.95397L15.9853 8.07037C15.996 8.50787 16.0006 8.9455 15.9991 9.38312L15.9997 9.83071V10.6167C16.0012 11.0545 15.9966 11.4923 15.9859 11.93L15.9823 12.0464C15.9775 12.1808 15.9715 12.3134 15.9643 12.4736C15.9343 13.112 15.8323 13.5476 15.6847 13.9298C15.5345 14.3304 15.2984 14.6933 14.993 14.9929C14.693 15.2979 14.3302 15.534 13.9298 15.6847C13.5477 15.8329 13.1121 15.9337 12.4737 15.9637C12.3135 15.9709 12.1809 15.9769 12.0465 15.9817L11.9301 15.9853C11.4924 15.996 11.0546 16.0006 10.6168 15.9991L10.1692 15.9997H9.38387C8.94605 16.0012 8.50823 15.9966 8.07054 15.9859L7.95414 15.9823C7.81172 15.9771 7.66932 15.9711 7.52697 15.9643C6.8886 15.9343 6.45302 15.8323 6.07024 15.6847C5.66987 15.5343 5.30722 15.2982 5.00769 14.9929C4.70234 14.6931 4.46606 14.3303 4.31533 13.9298C4.16714 13.5476 4.06634 13.112 4.03634 12.4736C4.02966 12.3313 4.02366 12.1889 4.01835 12.0464L4.01535 11.93C4.00428 11.4923 3.99928 11.0545 4.00035 10.6167V9.38312C3.99867 8.9455 4.00307 8.50787 4.01355 8.07037L4.01775 7.95397C4.02255 7.81958 4.02854 7.68638 4.03574 7.52679C4.06574 6.88781 4.16654 6.45282 4.31473 6.07004C4.46555 5.66962 4.70229 5.30713 5.00829 5.00807C5.30762 4.70254 5.67004 4.46604 6.07024 4.3151C6.45302 4.1669 6.888 4.06611 7.52697 4.03611L7.95414 4.01811L8.07054 4.01511C8.50802 4.00405 8.94564 3.99905 9.38327 4.00011L10.6168 4.00071ZM10 7.00061C9.60256 6.99498 9.20793 7.06842 8.83908 7.21664C8.47023 7.36486 8.13452 7.58491 7.85146 7.86401C7.56839 8.14311 7.34361 8.47568 7.19019 8.8424C7.03677 9.20912 6.95777 9.60268 6.95777 10.0002C6.95777 10.3977 7.03677 10.7913 7.19019 11.158C7.34361 11.5247 7.56839 11.8573 7.85146 12.1364C8.13452 12.4155 8.47023 12.6355 8.83908 12.7838C9.20793 12.932 9.60256 13.0054 10 12.9998C10.7956 12.9998 11.5587 12.6837 12.1213 12.1212C12.6838 11.5586 12.9999 10.7955 12.9999 9.9999C12.9999 9.20428 12.6838 8.44125 12.1213 7.87866C11.5587 7.31607 10.7956 7.00061 10 7.00061ZM10 8.20056C10.2391 8.19616 10.4767 8.23944 10.6989 8.32788C10.9211 8.41633 11.1234 8.54816 11.294 8.71567C11.4647 8.88319 11.6003 9.08303 11.6928 9.30353C11.7854 9.52403 11.8331 9.76076 11.8331 9.9999C11.8331 10.239 11.7855 10.4758 11.693 10.6963C11.6006 10.9168 11.4651 11.1167 11.2945 11.2843C11.1239 11.4519 10.9216 11.5838 10.6994 11.6723C10.4773 11.7608 10.2397 11.8042 10.0006 11.7998C9.52327 11.7998 9.06546 11.6102 8.72791 11.2727C8.39036 10.9351 8.20073 10.4773 8.20073 9.9999C8.20073 9.52253 8.39036 9.06471 8.72791 8.72715C9.06546 8.3896 9.52327 8.19996 10.0006 8.19996L10 8.20056ZM13.1499 6.10064C12.9563 6.10838 12.7733 6.19072 12.6391 6.33041C12.5049 6.4701 12.4299 6.6563 12.4299 6.85001C12.4299 7.04372 12.5049 7.22992 12.6391 7.36961C12.7733 7.5093 12.9563 7.59164 13.1499 7.59939C13.3488 7.59939 13.5395 7.52037 13.6802 7.37972C13.8208 7.23908 13.8998 7.04832 13.8998 6.84941C13.8998 6.65051 13.8208 6.45975 13.6802 6.3191C13.5395 6.17845 13.3488 6.09944 13.1499 6.09944V6.10064Z" fill="white"/>
</g>
<defs>
<clipPath id="clip0_4268_29607">
<rect width="20" height="20" fill="white"/>
</clipPath>
</defs>
</svg>
