<svg width="20" height="20" viewBox="0 0 20 20" fill="none" xmlns="http://www.w3.org/2000/svg">
<g clip-path="url(#clip0_5775_10860)">
<path d="M15.3125 0H4.6875C2.09867 0 0 2.09867 0 4.6875V15.3125C0 17.9013 2.09867 20 4.6875 20H15.3125C17.9013 20 20 17.9013 20 15.3125V4.6875C20 2.09867 17.9013 0 15.3125 0Z" fill="#FF793F"/>
<path d="M14.4443 5.55469H5.55545C4.94434 5.55469 4.44434 6.05469 4.44434 6.6658V13.3325C4.44434 13.9436 4.94434 14.4436 5.55545 14.4436H14.4443C15.0554 14.4436 15.5554 13.9436 15.5554 13.3325V6.6658C15.5554 6.05469 15.0554 5.55469 14.4443 5.55469ZM14.2221 7.9158L10.5888 10.188C10.2277 10.4158 9.77211 10.4158 9.411 10.188L5.77767 7.9158C5.72196 7.88453 5.67318 7.84228 5.63427 7.79161C5.59537 7.74094 5.56715 7.6829 5.55132 7.621C5.5355 7.55911 5.53239 7.49465 5.5422 7.43152C5.55201 7.3684 5.57452 7.30792 5.60838 7.25374C5.64224 7.19957 5.68674 7.15283 5.73918 7.11635C5.79163 7.07987 5.85093 7.05442 5.9135 7.04152C5.97607 7.02862 6.0406 7.02856 6.1032 7.04133C6.16579 7.05409 6.22515 7.07943 6.27767 7.1158L9.99989 9.44358L13.7221 7.1158C13.7746 7.07943 13.834 7.05409 13.8966 7.04133C13.9592 7.02856 14.0237 7.02862 14.0863 7.04152C14.1489 7.05442 14.2082 7.07987 14.2606 7.11635C14.313 7.15283 14.3575 7.19957 14.3914 7.25374C14.4253 7.30792 14.4478 7.3684 14.4576 7.43152C14.4674 7.49465 14.4643 7.55911 14.4485 7.621C14.4326 7.6829 14.4044 7.74094 14.3655 7.79161C14.3266 7.84228 14.2778 7.88453 14.2221 7.9158Z" fill="white"/>
</g>
<defs>
<clipPath id="clip0_5775_10860">
<rect width="20" height="20" fill="white"/>
</clipPath>
</defs>
</svg>
