<svg width="20" height="20" viewBox="0 0 20 20" fill="none" xmlns="http://www.w3.org/2000/svg">
<g clip-path="url(#clip0_4268_29608)">
<path d="M15.3125 0H4.6875C2.09867 0 0 2.09867 0 4.6875V15.3125C0 17.9013 2.09867 20 4.6875 20H15.3125C17.9013 20 20 17.9013 20 15.3125V4.6875C20 2.09867 17.9013 0 15.3125 0Z" fill="#FF793F"/>
<path d="M14.2114 12.2553C13.5168 11.6612 12.8119 11.3013 12.1258 11.8945L11.7161 12.253C11.4164 12.5133 10.8591 13.7293 8.70432 11.2506C6.55003 8.77501 7.83202 8.38956 8.13221 8.13155L8.54413 7.77258C9.22663 7.17803 8.96907 6.42956 8.47682 5.65912L8.17977 5.19245C7.68529 4.42379 7.14682 3.91899 6.46253 4.51264L6.09279 4.83572C5.79035 5.05604 4.94496 5.77219 4.7399 7.13271C4.49311 8.76514 5.27163 10.6345 7.05529 12.6856C8.8367 14.7376 10.5809 15.7683 12.233 15.7503C13.6061 15.7355 14.4353 14.9987 14.6947 14.7308L15.0658 14.4073C15.7483 13.8141 15.3243 13.2101 14.6292 12.6147L14.2114 12.2553Z" fill="white"/>
</g>
<defs>
<clipPath id="clip0_4268_29608">
<rect width="20" height="20" fill="white"/>
</clipPath>
</defs>
</svg>
