<svg width="20" height="20" viewBox="0 0 20 20" fill="none" xmlns="http://www.w3.org/2000/svg">
<g clip-path="url(#clip0_4268_29984)">
<path fill-rule="evenodd" clip-rule="evenodd" d="M16 0C18.2091 0 20 1.79086 20 4V16C20 18.2091 18.2091 20 16 20H4C1.79086 20 0 18.2091 0 16V4C0 1.79086 1.79086 0 4 0H16Z" fill="#FF793F"/>
<path fill-rule="evenodd" clip-rule="evenodd" d="M14.757 5.06841C14.9045 5.00784 15.066 4.98694 15.2247 5.00791C15.3833 5.02888 15.5333 5.09093 15.659 5.18762C15.7847 5.28431 15.8815 5.4121 15.9394 5.55769C15.9973 5.70327 16.0141 5.86133 15.9881 6.01542L14.634 14.0277C14.5027 14.8005 13.6334 15.2437 12.9067 14.8588C12.2989 14.5367 11.3962 14.0405 10.5842 13.5227C10.1782 13.2635 8.93456 12.4336 9.08741 11.843C9.21876 11.3381 11.3084 9.44058 12.5025 8.31245C12.9712 7.86923 12.7575 7.61355 12.204 8.02124C10.829 9.03347 8.6229 10.5728 7.8933 11.0061C7.24968 11.3882 6.91414 11.4534 6.51292 11.3882C5.78094 11.2694 5.10209 11.0853 4.54803 10.8611C3.79932 10.5582 3.83574 9.55415 4.54743 9.26178L14.757 5.06841Z" fill="white"/>
</g>
<defs>
<clipPath id="clip0_4268_29984">
<rect width="20" height="20" fill="white"/>
</clipPath>
</defs>
</svg>
