<svg width="20" height="20" viewBox="0 0 20 20" fill="none" xmlns="http://www.w3.org/2000/svg">
<g clip-path="url(#clip0_4268_29604)">
<path d="M15.3125 0H4.6875C2.09867 0 0 2.09867 0 4.6875V15.3125C0 17.9013 2.09867 20 4.6875 20H15.3125C17.9013 20 20 17.9013 20 15.3125V4.6875C20 2.09867 17.9013 0 15.3125 0Z" fill="#FF793F"/>
<path d="M13.1217 5.125H14.7764L11.1623 9.25469L15.4139 14.875H12.0857L9.47715 11.4672L6.4959 14.875H4.83887L8.70371 10.457L4.62793 5.125H8.04043L10.3959 8.23984L13.1217 5.125ZM12.5404 13.8859H13.4568L7.54121 6.0625H6.55684L12.5404 13.8859Z" fill="white"/>
</g>
<defs>
<clipPath id="clip0_4268_29604">
<rect width="20" height="20" fill="white"/>
</clipPath>
</defs>
</svg>
