<svg width="20" height="20" viewBox="0 0 20 20" fill="none" xmlns="http://www.w3.org/2000/svg">
<g clip-path="url(#clip0_5775_64170)">
<path fill-rule="evenodd" clip-rule="evenodd" d="M16 0C18.2091 0 20 1.79086 20 4V16C20 18.2091 18.2091 20 16 20H4C1.79086 20 0 18.2091 0 16V4C0 1.79086 1.79086 0 4 0H16Z" fill="#FF793F"/>
<path d="M14.4097 8.79814C14.4242 7.0483 12.9339 5.44429 11.0879 5.22223C11.048 5.21726 11.0083 5.21121 10.9687 5.20408C10.8759 5.18632 10.7818 5.1762 10.6873 5.17383C10.3086 5.17383 10.2075 5.44005 10.1809 5.59797C10.1549 5.75227 10.1797 5.88235 10.2541 5.9834C10.3794 6.15342 10.6002 6.18367 10.7775 6.20788C10.8289 6.21514 10.8779 6.22179 10.9191 6.23087C12.5782 6.60177 13.1366 7.18444 13.4095 8.8296C13.4162 8.86953 13.4192 8.91915 13.4228 8.97179C13.4349 9.16843 13.4591 9.57745 13.899 9.57745C13.9353 9.57745 13.9752 9.57443 14.0164 9.56838C14.4254 9.50605 14.4127 9.13213 14.4066 8.95243C14.4048 8.9016 14.403 8.8538 14.4079 8.82173C14.4088 8.8137 14.4092 8.80562 14.4091 8.79753L14.4097 8.79814Z" fill="white"/>
<path d="M10.5802 4.57972C10.6298 4.58335 10.6758 4.58698 10.7145 4.59243C13.4391 5.01173 14.6922 6.30233 15.0389 9.04809C15.045 9.09468 15.0462 9.15155 15.0468 9.21145C15.0504 9.42625 15.0577 9.87278 15.5369 9.88186H15.5514C15.702 9.88186 15.8212 9.83648 15.9072 9.74693C16.056 9.59143 16.0463 9.35969 16.0372 9.17333C16.0354 9.12735 16.0336 9.08439 16.0336 9.04627C16.0687 6.23879 13.6376 3.6921 10.8325 3.59771C10.8204 3.59771 10.8095 3.59771 10.7986 3.59952C10.7876 3.60092 10.7765 3.60152 10.7654 3.60134C10.7369 3.60134 10.703 3.59892 10.6661 3.5965C10.6226 3.59347 10.5724 3.58984 10.5209 3.58984C10.0744 3.58984 9.98968 3.9075 9.97879 4.09688C9.95398 4.53434 10.3769 4.5652 10.5802 4.57972ZM14.9076 12.5968C14.8491 12.5523 14.7913 12.5071 14.734 12.4612C14.4363 12.2216 14.1198 12.0014 13.8143 11.7878L13.6237 11.6547C13.2316 11.3794 12.8794 11.2457 12.5467 11.2457C12.0977 11.2457 11.7068 11.4937 11.3837 11.982C11.2409 12.1986 11.0673 12.3039 10.8537 12.3039C10.7054 12.2987 10.5598 12.2622 10.4265 12.1968C9.16196 11.6232 8.258 10.7435 7.74128 9.58235C7.49139 9.02086 7.57247 8.65419 8.01174 8.35529C8.26163 8.18588 8.72571 7.87064 8.69364 7.26619C8.65613 6.58065 7.14287 4.51679 6.50514 4.28264C6.23251 4.18319 5.93367 4.18233 5.66048 4.28022C4.92775 4.52648 4.40256 4.9597 4.13936 5.53148C3.88523 6.0845 3.89733 6.73373 4.17203 7.40898C4.96768 9.36151 6.08583 11.0641 7.49623 12.4691C8.87637 13.8444 10.573 14.9704 12.5382 15.8169C12.7155 15.8931 12.9012 15.9349 13.0374 15.9651C13.0833 15.9754 13.1233 15.9845 13.1523 15.9924C13.1683 15.9967 13.1848 15.9989 13.2013 15.999H13.2171C14.1416 15.999 15.2519 15.1543 15.5925 14.1917C15.8914 13.3482 15.3457 12.9314 14.9076 12.5968ZM10.9892 6.81058C10.8313 6.81421 10.5016 6.82268 10.386 7.15788C10.3315 7.3152 10.3382 7.45073 10.4054 7.56266C10.5034 7.72603 10.6915 7.77686 10.8622 7.80469C11.4824 7.90392 11.8012 8.24638 11.8648 8.88351C11.8944 9.17999 12.0947 9.38752 12.3506 9.38752C12.37 9.38749 12.3894 9.38628 12.4087 9.38389C12.7173 9.34759 12.8667 9.12069 12.8534 8.70986C12.8583 8.28148 12.6344 7.79501 12.2526 7.40777C11.8702 7.01932 11.4091 6.80029 10.9892 6.81058Z" fill="white"/>
</g>
<defs>
<clipPath id="clip0_5775_64170">
<rect width="20" height="20" fill="white"/>
</clipPath>
</defs>
</svg>
