<svg width="20" height="20" viewBox="0 0 20 20" fill="none" xmlns="http://www.w3.org/2000/svg">
<g clip-path="url(#clip0_5775_6993)">
<path fill-rule="evenodd" clip-rule="evenodd" d="M16 0C18.2091 0 20 1.79086 20 4V16C20 18.2091 18.2091 20 16 20H4C1.79086 20 0 18.2091 0 16V4C0 1.79086 1.79086 0 4 0H16Z" fill="#FF793F"/>
<path d="M10 4C13.3138 4 16 6.6862 16 10C16 13.3138 13.3138 16 10 16C8.93967 16.0017 7.898 15.7211 6.98201 15.187L4.00241 16L4.81361 13.0192C4.27906 12.1029 3.99824 11.0608 4.00001 10C4.00001 6.6862 6.68621 4 10 4ZM7.95521 7.18L7.83521 7.1848C7.75752 7.18953 7.68159 7.20994 7.61201 7.2448C7.54692 7.28166 7.4875 7.32773 7.43561 7.3816C7.36361 7.4494 7.32281 7.5082 7.27901 7.5652C7.05708 7.85374 6.93759 8.20799 6.93941 8.572C6.94061 8.866 7.01741 9.1522 7.13741 9.4198C7.38281 9.961 7.78661 10.534 8.31941 11.065C8.44781 11.1928 8.57381 11.3212 8.70941 11.4406C9.37144 12.0235 10.1604 12.4438 11.0134 12.6682L11.3542 12.7204C11.4652 12.7264 11.5762 12.718 11.6878 12.7126C11.8625 12.7036 12.0332 12.6563 12.1876 12.574C12.2662 12.5335 12.3429 12.4895 12.4174 12.442C12.4174 12.442 12.4432 12.4252 12.4924 12.388C12.5734 12.328 12.6232 12.2854 12.6904 12.2152C12.7402 12.1636 12.7834 12.103 12.8164 12.034C12.8632 11.9362 12.91 11.7496 12.9292 11.5942C12.9436 11.4754 12.9394 11.4106 12.9376 11.3704C12.9352 11.3062 12.8818 11.2396 12.8236 11.2114L12.4744 11.0548C12.4744 11.0548 11.9524 10.8274 11.6332 10.6822C11.5998 10.6676 11.564 10.6593 11.5276 10.6576C11.4866 10.6534 11.4451 10.658 11.406 10.6711C11.3668 10.6843 11.331 10.7056 11.3008 10.7338C11.2978 10.7326 11.2576 10.7668 10.8238 11.2924C10.7989 11.3259 10.7646 11.3511 10.7253 11.365C10.686 11.3789 10.6434 11.3808 10.603 11.3704C10.5639 11.3599 10.5256 11.3467 10.4884 11.3308C10.414 11.2996 10.3882 11.2876 10.3372 11.266C9.99284 11.1157 9.67402 10.9127 9.3922 10.6642C9.3166 10.5982 9.24641 10.5262 9.17441 10.4566C8.93836 10.2305 8.73264 9.9748 8.56241 9.6958L8.52701 9.6388C8.50158 9.6005 8.48102 9.55918 8.46581 9.5158C8.44301 9.4276 8.50241 9.3568 8.50241 9.3568C8.50241 9.3568 8.64821 9.1972 8.71601 9.1108C8.78201 9.0268 8.8378 8.9452 8.87381 8.887C8.9446 8.773 8.9668 8.656 8.92961 8.5654C8.76161 8.155 8.58761 7.7464 8.40881 7.3408C8.37341 7.2604 8.26841 7.2028 8.17301 7.1914C8.14061 7.1878 8.10821 7.1842 8.07581 7.1818C7.99523 7.17779 7.91449 7.1786 7.83401 7.1842L7.95461 7.1794L7.95521 7.18Z" fill="white"/>
</g>
<defs>
<clipPath id="clip0_5775_6993">
<rect width="20" height="20" fill="white"/>
</clipPath>
</defs>
</svg>
