<svg width="20" height="20" viewBox="0 0 20 20" fill="none" xmlns="http://www.w3.org/2000/svg">
<g clip-path="url(#clip0_5775_56081)">
<path d="M15.3125 0H4.6875C2.09867 0 0 2.09867 0 4.6875V15.3125C0 17.9013 2.09867 20 4.6875 20H15.3125C17.9013 20 20 17.9013 20 15.3125V4.6875C20 2.09867 17.9013 0 15.3125 0Z" fill="#FF793F"/>
<path fill-rule="evenodd" clip-rule="evenodd" d="M9.63327 4.5C8.60913 4.49959 7.60293 4.76893 6.71595 5.28092C5.82897 5.79292 5.09248 6.52951 4.58061 7.41657C4.4426 7.65575 4.13682 7.73775 3.89764 7.59974C3.65847 7.46172 3.57646 7.15595 3.71447 6.91677C4.31413 5.87758 5.17692 5.01466 6.21603 4.41486C7.25507 3.81508 8.43375 3.49955 9.63348 3.5C10.8332 3.49955 12.0119 3.81508 13.0509 4.41486C14.09 5.01466 14.9528 5.87758 15.5525 6.91677C15.6905 7.15595 15.6085 7.46172 15.3693 7.59974C15.1301 7.73775 14.8244 7.65575 14.6863 7.41657C14.1745 6.52951 13.438 5.79292 12.551 5.28092C11.664 4.76893 10.6578 4.49959 9.63368 4.5H9.63327ZM9.63348 3.5C9.63354 3.5 9.63361 3.5 9.63368 3.5L9.63348 4L9.63327 3.5C9.63334 3.5 9.63341 3.5 9.63348 3.5ZM3.89764 13.0669C4.13682 12.9289 4.4426 13.0109 4.58061 13.2501C5.09248 14.1372 5.82897 14.8737 6.71595 15.3857C7.60293 15.8977 8.60913 16.1671 9.63327 16.1667H9.63368C10.6578 16.1671 11.664 15.8977 12.551 15.3857C13.438 14.8737 14.1745 14.1372 14.6863 13.2501C14.8244 13.0109 15.1301 12.9289 15.3693 13.0669C15.6085 13.2049 15.6905 13.5107 15.5525 13.7499C14.9528 14.7891 14.09 15.652 13.0509 16.2518C12.0118 16.8516 10.8331 17.1672 9.63327 17.1667L9.63348 16.6667L9.63368 17.1667C9.63354 17.1667 9.63341 17.1667 9.63327 17.1667C8.43362 17.1671 7.25501 16.8515 6.21603 16.2518C5.17692 15.652 4.31413 14.7891 3.71447 13.7499C3.57646 13.5107 3.65847 13.2049 3.89764 13.0669Z" fill="white"/>
<path fill-rule="evenodd" clip-rule="evenodd" d="M9.39849 4.33388C9.39844 4.33394 9.39853 4.33382 9.39849 4.33388L9.39314 4.34111C9.38809 4.34797 9.37988 4.35926 9.3688 4.37488C9.34662 4.40612 9.31299 4.45466 9.27024 4.51973C9.18471 4.64993 9.0629 4.84603 8.92351 5.10207C8.64449 5.6146 8.29666 6.36432 8.02764 7.3039C7.95163 7.56938 7.6748 7.72297 7.40933 7.64696C7.14385 7.57095 6.99026 7.29413 7.06627 7.02865C7.35902 6.00617 7.73794 5.18839 8.04523 4.62393C8.19899 4.34148 8.33523 4.12172 8.43445 3.97068C8.48408 3.89513 8.5245 3.8367 8.55329 3.79614C8.56768 3.77585 8.57918 3.76002 8.58747 3.74875L8.59746 3.73526L8.60058 3.7311L8.60167 3.72967L8.60209 3.72911C8.60217 3.72901 8.60242 3.72867 8.97509 4.01199L8.60209 3.72911C8.76921 3.50929 9.08324 3.46612 9.30306 3.63325C9.52266 3.8002 9.56552 4.1134 9.39901 4.3332C9.39897 4.33325 9.39853 4.33383 9.39849 4.33388ZM9.96452 3.63325C10.1843 3.46612 10.498 3.50884 10.6652 3.72867L10.2671 4.03128C10.6652 3.72867 10.6651 3.72856 10.6652 3.72867L10.6659 3.72967L10.667 3.7311L10.6701 3.73526L10.6801 3.74875C10.6884 3.76002 10.6999 3.77585 10.7143 3.79614C10.7431 3.8367 10.7835 3.89513 10.8331 3.97068C10.9324 4.12172 11.0686 4.34148 11.2224 4.62393C11.5296 5.18839 11.9086 6.00617 12.2013 7.02865C12.2773 7.29413 12.1237 7.57095 11.8582 7.64696C11.5928 7.72297 11.3159 7.56938 11.2399 7.3039C10.9709 6.36432 10.6231 5.6146 10.3441 5.10207C10.2047 4.84603 10.0829 4.64993 9.99734 4.51973C9.95459 4.45466 9.92095 4.40612 9.89878 4.37488C9.8877 4.35926 9.87948 4.34797 9.87444 4.34111L9.86928 4.33414C9.86923 4.33408 9.86932 4.3342 9.86928 4.33414M9.96452 3.63325C9.74475 3.80032 9.70231 4.11432 9.86928 4.33414L9.96452 3.63325ZM2.52345 8.58736C2.78795 8.50801 3.06669 8.65811 3.14604 8.9226L3.61712 10.4929L4.08821 8.9226C4.15166 8.71111 4.34632 8.56628 4.56712 8.56628C4.78793 8.56628 4.98259 8.71111 5.04604 8.9226L5.51712 10.4929L5.98821 8.9226C6.06756 8.65811 6.3463 8.50801 6.6108 8.58736C6.87529 8.66671 7.02538 8.94545 6.94604 9.20995L5.99604 12.3766C5.93259 12.5881 5.73793 12.7329 5.51712 12.7329C5.29632 12.7329 5.10166 12.5881 5.03821 12.3766L4.56712 10.8063L4.09604 12.3766C4.03259 12.5881 3.83793 12.7329 3.61712 12.7329C3.39632 12.7329 3.20166 12.5881 3.13821 12.3766L2.18821 9.20995C2.10886 8.94545 2.25895 8.66671 2.52345 8.58736ZM7.59012 8.58736C7.85461 8.50801 8.13335 8.65811 8.2127 8.9226L8.68379 10.4929L9.15488 8.9226C9.21832 8.71111 9.41298 8.56628 9.63379 8.56628C9.85459 8.56628 10.0493 8.71111 10.1127 8.9226L10.5838 10.4929L11.0549 8.9226C11.1342 8.65811 11.413 8.50801 11.6775 8.58736C11.942 8.66671 12.0921 8.94545 12.0127 9.20995L11.0627 12.3766C10.9993 12.5881 10.8046 12.7329 10.5838 12.7329C10.363 12.7329 10.1683 12.5881 10.1049 12.3766L9.63379 10.8063L9.1627 12.3766C9.09925 12.5881 8.90459 12.7329 8.68379 12.7329C8.46299 12.7329 8.26832 12.5881 8.20488 12.3766L7.25488 9.20995C7.17553 8.94545 7.32562 8.66671 7.59012 8.58736ZM12.6568 8.58736C12.9213 8.50801 13.2 8.65811 13.2794 8.9226L13.7505 10.4929L14.2215 8.9226C14.285 8.71111 14.4797 8.56628 14.7005 8.56628C14.9213 8.56628 15.1159 8.71111 15.1794 8.9226L15.6505 10.4929L16.1215 8.9226C16.2009 8.65811 16.4796 8.50801 16.7441 8.58736C17.0086 8.66671 17.1587 8.94545 17.0794 9.20995L16.1294 12.3766C16.0659 12.5881 15.8713 12.7329 15.6505 12.7329C15.4297 12.7329 15.235 12.5881 15.1715 12.3766L14.7005 10.8063L14.2294 12.3766C14.1659 12.5881 13.9713 12.7329 13.7505 12.7329C13.5297 12.7329 13.335 12.5881 13.2715 12.3766L12.3215 9.20995C12.2422 8.94545 12.3923 8.66671 12.6568 8.58736ZM7.40933 13.0189C7.6748 12.9429 7.95163 13.0965 8.02764 13.362C8.29666 14.3016 8.64449 15.0513 8.92351 15.5638C9.0629 15.8199 9.18471 16.016 9.27024 16.1462C9.31299 16.2112 9.34662 16.2598 9.3688 16.291C9.37988 16.3066 9.38809 16.3179 9.39314 16.3248L9.3983 16.3317C9.39826 16.3317 9.39835 16.3318 9.3983 16.3317M9.3983 16.3317C9.56526 16.5516 9.52283 16.8656 9.30306 17.0326C9.08324 17.1998 8.76955 17.157 8.60242 16.9372L8.97515 16.6538C8.60242 16.9372 8.6025 16.9373 8.60242 16.9372L8.60058 16.9348L8.59746 16.9306L8.58747 16.9171C8.57918 16.9059 8.56768 16.89 8.55329 16.8698C8.5245 16.8292 8.48408 16.7708 8.43445 16.6952C8.33523 16.5442 8.19899 16.3244 8.04523 16.042C7.73794 15.4775 7.35902 14.6597 7.06627 13.6372C6.99026 13.3718 7.14385 13.0949 7.40933 13.0189M11.8583 13.0189C12.1238 13.095 12.2773 13.3718 12.2013 13.6373C11.9085 14.6594 11.5296 15.4772 11.2224 16.0417C11.0686 16.3242 10.9324 16.544 10.8332 16.6951C10.7835 16.7706 10.7431 16.8291 10.7144 16.8696C10.7 16.8899 10.6885 16.9058 10.6802 16.917L10.6702 16.9305L10.6671 16.9347L10.666 16.9361L10.6656 16.9367C10.6655 16.9368 10.6652 16.9371 10.2671 16.6346L10.6656 16.9367C10.4985 17.1565 10.1845 17.1998 9.96462 17.0327C9.74499 16.8658 9.70204 16.5527 9.86847 16.3328C9.86843 16.3329 9.86851 16.3328 9.86847 16.3328L9.86887 16.3323C9.86883 16.3323 9.86892 16.3322 9.86887 16.3323L9.87437 16.3249C9.87942 16.318 9.88763 16.3067 9.89872 16.2911C9.9209 16.2598 9.95454 16.2112 9.9973 16.1461C10.0828 16.0159 10.2047 15.8197 10.3441 15.5636C10.6231 15.051 10.9709 14.3012 11.2399 13.3619C11.316 13.0965 11.5928 12.9429 11.8583 13.0189Z" fill="white"/>
</g>
<defs>
<clipPath id="clip0_5775_56081">
<rect width="20" height="20" fill="white"/>
</clipPath>
</defs>
</svg>
