<svg width="20" height="20" viewBox="0 0 20 20" fill="none" xmlns="http://www.w3.org/2000/svg">
<g clip-path="url(#clip0_4268_29605)">
<path d="M15.3125 0H4.6875C2.09867 0 0 2.09867 0 4.6875V15.3125C0 17.9013 2.09867 20 4.6875 20H15.3125C17.9013 20 20 17.9013 20 15.3125V4.6875C20 2.09867 17.9013 0 15.3125 0Z" fill="#FF793F"/>
<path fill-rule="evenodd" clip-rule="evenodd" d="M9.99967 5C10.5697 5 11.1543 5.01375 11.721 5.03625L12.3903 5.06625L13.031 5.10188L13.631 5.14L14.179 5.18C14.7737 5.22267 15.3333 5.46059 15.7594 5.8519C16.1854 6.24321 16.4506 6.76284 16.5083 7.31938L16.535 7.585L16.585 8.15375C16.6317 8.74312 16.6663 9.38562 16.6663 10C16.6663 10.6144 16.6317 11.2569 16.585 11.8463L16.535 12.415C16.5263 12.5063 16.5177 12.5944 16.5083 12.6806C16.4506 13.2373 16.1853 13.757 15.7591 14.1483C15.3329 14.5396 14.7732 14.7775 14.1783 14.82L13.6317 14.8594L13.0317 14.8981L12.3903 14.9337L11.721 14.9637C11.1476 14.9871 10.5737 14.9992 9.99967 15C9.42569 14.9992 8.85179 14.9871 8.27834 14.9637L7.60901 14.9337L6.96834 14.8981L6.36834 14.8594L5.82034 14.82C5.22564 14.7773 4.66604 14.5394 4.23999 14.1481C3.81394 13.7568 3.54872 13.2372 3.49101 12.6806L3.46434 12.415L3.41434 11.8463C3.36337 11.232 3.33624 10.6161 3.33301 10C3.33301 9.38562 3.36767 8.74312 3.41434 8.15375L3.46434 7.585C3.47301 7.49375 3.48167 7.40562 3.49101 7.31938C3.5487 6.76294 3.81382 6.24338 4.23974 5.85209C4.66565 5.46079 5.22509 5.22281 5.81967 5.18L6.36701 5.14L6.96701 5.10188L7.60834 5.06625L8.27767 5.03625C8.85134 5.0129 9.42547 5.00081 9.99967 5ZM8.66634 8.48438V11.5156C8.66634 11.8044 8.99967 11.9844 9.26634 11.8406L12.0663 10.325C12.1273 10.2921 12.1779 10.2448 12.2131 10.1877C12.2483 10.1307 12.2668 10.0659 12.2668 10C12.2668 9.93409 12.2483 9.86935 12.2131 9.81229C12.1779 9.75523 12.1273 9.70788 12.0663 9.675L9.26634 8.16C9.20551 8.12708 9.13651 8.10975 9.06628 8.10976C8.99604 8.10977 8.92704 8.12712 8.86623 8.16006C8.80541 8.193 8.75492 8.24038 8.71983 8.29742C8.68475 8.35446 8.6663 8.41915 8.66634 8.485V8.48438Z" fill="white"/>
</g>
<defs>
<clipPath id="clip0_4268_29605">
<rect width="20" height="20" fill="white"/>
</clipPath>
</defs>
</svg>
