<svg width="128" height="32" viewBox="0 0 128 32" fill="none" xmlns="http://www.w3.org/2000/svg">
<g clip-path="url(#clip0_2676_5345)">
<mask id="mask0_2676_5345" style="mask-type:luminance" maskUnits="userSpaceOnUse" x="0" y="0" width="36" height="33">
<path d="M0.713013 9.49404C0.713013 9.28489 0.882562 9.11535 1.09171 9.11535H3.35337C3.56252 9.11535 3.73207 9.28489 3.73207 9.49404V11.7813C3.73207 11.9905 3.56252 12.16 3.35337 12.16H1.09171C0.882562 12.16 0.713013 11.9905 0.713013 11.7813V9.49404ZM5.18127 15.1923C5.18127 14.9831 5.35082 14.8136 5.55997 14.8136H9.63276C9.84191 14.8136 10.0115 14.9831 10.0115 15.1923V19.306C10.0115 19.5152 9.84191 19.6847 9.63276 19.6847H5.55997C5.35082 19.6847 5.18127 19.5152 5.18127 19.306V15.1923ZM15.479 11.7214C15.5496 11.7901 15.6444 11.8286 15.743 11.8286H22.851C23.0602 11.8286 23.2297 11.9981 23.2297 12.2073V19.7927C23.2297 20.0018 23.0602 20.1714 22.851 20.1714H15.3358C15.1267 20.1714 14.9571 20.0018 14.9571 19.7927V12.5066C14.9571 12.4043 14.9158 12.3064 14.8425 12.2351L11.3733 8.86057C11.3026 8.7918 11.2079 8.75333 11.1092 8.75333H6.15135C5.9422 8.75333 5.77265 8.58378 5.77265 8.37463V2.98298C5.77265 2.77383 5.9422 2.60428 6.15135 2.60428H11.4913C11.7004 2.60428 11.87 2.77383 11.87 2.98298V8.05147C11.87 8.15373 11.9113 8.25165 11.9846 8.32295L15.479 11.7214ZM14.9571 0.378698C14.9571 0.169549 15.1267 0 15.3358 0H19.848C24.2141 0 28.1813 1.79888 31.0553 4.698C33.9293 7.59637 35.7138 11.5972 35.7138 16.0004C35.7138 20.4035 33.93 24.4044 31.0553 27.3027C28.1813 30.2011 24.2141 32.0007 19.848 32.0007H15.3358C15.1267 32.0007 14.9571 31.8312 14.9571 31.622V26.6252C14.9571 26.4161 15.1267 26.2466 15.3358 26.2466H19.848C22.6391 26.2466 25.1785 25.0926 27.0207 23.2347C28.8637 21.3761 30.0072 18.8151 30.0072 16.0011C30.0072 13.1863 28.863 10.6254 27.0207 8.76751C25.1778 6.90891 22.6383 5.75568 19.848 5.75568H15.3358C15.1267 5.75568 14.9571 5.58614 14.9571 5.37699V0.378698Z" fill="white"/>
</mask>
<g mask="url(#mask0_2676_5345)">
<path d="M35.145 0H1.28106C0.967336 0 0.713013 0.254323 0.713013 0.568047V31.432C0.713013 31.7457 0.967336 32 1.28106 32H35.145C35.4587 32 35.713 31.7457 35.713 31.432V0.568047C35.713 0.254323 35.4587 0 35.145 0Z" fill="#D4492A"/>
</g>
</g>
<path d="M43.287 26.0244V6.05579C43.287 5.61739 43.4351 5.24849 43.7312 4.94909C44.0273 4.6497 44.3816 4.5 44.7941 4.5H53.6621C58.252 4.5 61.5888 5.43026 63.6723 7.2908C65.7663 9.14063 66.8133 12.049 66.8133 16.016C66.8133 19.9723 65.7663 22.8754 63.6723 24.7252C61.5888 26.5751 58.252 27.5 53.6621 27.5H44.7941C44.3816 27.5 44.0273 27.361 43.7312 27.083C43.4351 26.7943 43.287 26.4414 43.287 26.0244ZM49.2677 22.9609H53.4876C56.3325 22.9609 58.2679 22.437 59.2938 21.3891C60.3197 20.3412 60.8326 18.5502 60.8326 16.016C60.8326 13.4712 60.3197 11.6748 59.2938 10.6269C58.2679 9.56834 56.3325 9.03905 53.4876 9.03905H49.2677V22.9609Z" fill="#150704"/>
<path d="M70.0655 25.9923V6.02371C70.0655 5.60669 70.2082 5.24849 70.4938 4.94909C70.7793 4.6497 71.1283 4.5 71.5408 4.5H76.2048C76.575 4.5 76.9663 4.6497 77.3788 4.94909C77.7912 5.24849 78.1297 5.60669 78.3941 6.02371L87.9759 20.924V5.99163C87.9759 5.57462 88.1187 5.22176 88.4043 4.93305C88.7004 4.64435 89.0547 4.5 89.4672 4.5H92.1958C92.6082 4.5 92.9572 4.64435 93.2428 4.93305C93.5389 5.22176 93.687 5.58531 93.687 6.02371V25.9923C93.687 26.4093 93.5389 26.7676 93.2428 27.0669C92.9572 27.3556 92.6082 27.5 92.1958 27.5H86.9289C86.5164 27.5 86.0934 27.3556 85.6598 27.0669C85.2262 26.7676 84.8825 26.4093 84.6286 25.9923L75.8558 12.2308V25.9923C75.8558 26.4093 75.7078 26.7676 75.4116 27.0669C75.1261 27.3556 74.7771 27.5 74.3646 27.5H71.5725C71.1601 27.5 70.8058 27.3556 70.5097 27.0669C70.2135 26.7676 70.0655 26.4093 70.0655 25.9923Z" fill="#150704"/>
<path d="M98.24 25.9603V6.05579C98.24 5.61739 98.3827 5.24849 98.6683 4.94909C98.9538 4.6497 99.3028 4.5 99.7153 4.5H106.172C106.584 4.5 106.976 4.6497 107.346 4.94909C107.716 5.24849 107.965 5.60669 108.092 6.02371L112.771 19.7211L117.451 6.02371C117.578 5.60669 117.827 5.24849 118.197 4.94909C118.567 4.6497 118.958 4.5 119.371 4.5H125.827C126.24 4.5 126.584 4.6497 126.859 4.94909C127.144 5.24849 127.287 5.61739 127.287 6.05579V25.9603C127.287 26.3987 127.139 26.7676 126.843 27.0669C126.557 27.3556 126.208 27.5 125.796 27.5H122.94C122.528 27.5 122.173 27.3556 121.877 27.0669C121.592 26.7676 121.449 26.3987 121.449 25.9603V10.2901L115.849 26.0565C115.701 26.4521 115.442 26.7943 115.072 27.083C114.702 27.361 114.31 27.5 113.898 27.5H111.629C111.217 27.5 110.825 27.361 110.455 27.083C110.096 26.7943 109.837 26.4521 109.678 26.0565L104.094 10.2901V25.9603C104.094 26.3987 103.946 26.7676 103.65 27.0669C103.364 27.3556 103.015 27.5 102.603 27.5H99.747C99.3346 27.5 98.9803 27.3556 98.6842 27.0669C98.388 26.7676 98.24 26.3987 98.24 25.9603Z" fill="#150704"/>
<defs>
<clipPath id="clip0_2676_5345">
<rect width="35" height="32" fill="white" transform="translate(0.713013)"/>
</clipPath>
</defs>
</svg>
